<svg width="32" height="32" viewBox="0 0 32 32" fill="none" xmlns="http://www.w3.org/2000/svg">
  <!-- Dark background -->
  <rect width="32" height="32" rx="4" fill="#0a0a0a"/>
  
  <!-- Skull outline -->
  <path d="M16 4C11.5 4 8 7.5 8 12v6c0 2.5 1.5 4.5 3.5 5.5L10 26c-0.5 0.5-0.5 1.5 0 2s1.5 0.5 2 0l2-2c0.6 0.3 1.3 0.5 2 0.5s1.4-0.2 2-0.5l2 2c0.5 0.5 1.5 0.5 2 0s0.5-1.5 0-2l-1.5-2.5C22.5 22.5 24 20.5 24 18v-6c0-4.5-3.5-8-8-8z" fill="#8B0000" stroke="#B91C1C" stroke-width="0.5"/>
  
  <!-- Eye sockets with glow -->
  <circle cx="12.5" cy="14" r="2.5" fill="#000000"/>
  <circle cx="19.5" cy="14" r="2.5" fill="#000000"/>
  <circle cx="12.5" cy="14" r="1" fill="#8B0000" opacity="0.6"/>
  <circle cx="19.5" cy="14" r="1" fill="#8B0000" opacity="0.6"/>
  
  <!-- Nasal cavity -->
  <path d="M16 17L14.5 21L17.5 21z" fill="#000000"/>
  
  <!-- Teeth -->
  <rect x="13" y="22" width="1.5" height="3" fill="#000000" rx="0.2"/>
  <rect x="15.25" y="22" width="1.5" height="3" fill="#000000" rx="0.2"/>
  <rect x="17.5" y="22" width="1.5" height="3" fill="#000000" rx="0.2"/>
</svg>